<svg width="100%" height="100%" viewBox="0 0 24 24" fill="currentColor" xmlns="http://www.w3.org/2000/svg" symbol id="rd-icon-spotter">
  <g clip-path="url(#clip0_2004_34062)">
    <path d="M11.25 13.5H12.75V22.5H11.25V13.5ZM9.31055 15.75L3.75 21.3105L2.68945 20.25L8.25 14.6895L9.31055 15.75ZM21.3105 20.25L20.25 21.3105L14.6895 15.75L15.75 14.6895L21.3105 20.25ZM10.5 11.0991V12.5991H1.5V11.0991H10.5ZM22.5 11.0991V12.5991H13.5V11.0991H22.5ZM11.25 1.5H12.75V10.5H11.25V1.5ZM9.31055 8.25L8.25 9.31055L2.68945 3.75L3.75 2.68945L9.31055 8.25ZM21.3105 3.75L15.75 9.31055L14.6895 8.25L20.25 2.68945L21.3105 3.75Z" fill="black"/>
  </g>
  <defs>
    <clipPath id="clip0_2004_34062">
      <rect width="24" height="24" fill="white"/>
    </clipPath>
  </defs>
</svg>

<svg xmlns="http://www.w3.org/2000/svg" width="100%" height="100%" viewBox="0 0 20 20" fill="currentColor" symbol id="rd-icon-paper-plane">
  <g clip-path="url(#clip0_2248_597)">
    <path fill-rule="evenodd" clip-rule="evenodd" d="M9.37489 4.27741L5.71054 7.94175L4.82666 7.05787L9.38453 2.5L10.6152 2.5L15.1731 7.05787L14.2892 7.94175L10.6249 4.27747L10.6249 17.5H9.37489L9.37489 4.27741Z" fill="white"/>
  </g>
  <defs>
    <clipPath id="clip0_2248_597">
      <rect width="20" height="20" fill="white"/>
    </clipPath>
  </defs>
</svg>

<svg xmlns="http://www.w3.org/2000/svg" width="100%" height="100%" viewBox="0 0 16 16" fill="currentColor" symbol id="rd-icon-checkmark">
  <path fill-rule="evenodd" clip-rule="evenodd" d="M10.3747 1.56963C9.85908 1.14775 9.10767 1.18522 8.63657 1.65632L4.29289 6H2V13L10.4296 13C11.2655 13 12.0461 12.5822 12.5098 11.8867L14.7481 8.52926C14.9124 8.28286 15 7.99335 15 7.69721V7.49999C15 6.67156 14.3284 5.99999 13.5 5.99999H9.77874C9.72915 5.99999 9.68148 5.98078 9.64574 5.94641C9.58809 5.89095 9.5709 5.80556 9.6026 5.73211L10.7442 3.08715C10.9736 2.55555 10.8228 1.93627 10.3747 1.56963ZM9.34368 2.36342C9.45149 2.25561 9.62346 2.24703 9.74147 2.34358C9.84403 2.42749 9.87853 2.56922 9.82602 2.69088L8.68446 5.33585C8.48755 5.79209 8.59437 6.32263 8.9525 6.66711C9.17454 6.88069 9.47066 6.99999 9.77874 6.99999H13.5C13.7761 6.99999 14 7.22385 14 7.49999V7.69721C14 7.79592 13.9708 7.89243 13.916 7.97456L11.6777 11.332C11.3995 11.7493 10.9312 12 10.4296 12H5.00001V6.70709L9.34368 2.36342ZM3 12V7H4V12H3Z" fill="black" fill-opacity="0.63"/>
</svg>

<svg xmlns="http://www.w3.org/2000/svg" width="100%" height="100%" viewBox="0 0 16 16" fill="currentColor" symbol id="rd-icon-cross">
  <path fill-rule="evenodd" clip-rule="evenodd" d="M4.29288 10H2V3L10.4296 3.00001C11.2655 3.00001 12.0461 3.41776 12.5098 4.11326L14.7481 7.47073C14.9123 7.71713 15 8.00665 15 8.30278V8.50001C15 9.32843 14.3284 10 13.5 10H9.77873C9.72914 10 9.68148 10.0192 9.64573 10.0536C9.58809 10.109 9.57089 10.1944 9.60259 10.2679L10.7442 12.9128C10.9736 13.4444 10.8228 14.0637 10.3747 14.4304C9.85908 14.8522 9.10766 14.8148 8.63657 14.3437L4.29288 10ZM4 9V4H3V9H4ZM5 9.2929L9.34367 13.6366C9.45149 13.7444 9.62346 13.753 9.74146 13.6564C9.84402 13.5725 9.87852 13.4308 9.82602 13.3091L8.68445 10.6641C8.48754 10.2079 8.59436 9.67737 8.9525 9.33288C9.17453 9.11931 9.47065 9.00001 9.77873 9.00001H13.5C13.7761 9.00001 14 8.77615 14 8.50001V8.30278C14 8.20407 13.9708 8.10757 13.916 8.02543L11.6777 4.66796C11.3995 4.25066 10.9312 4.00001 10.4296 4.00001H5V9.2929Z" fill="black" fill-opacity="0.63"/>
</svg>

<svg xmlns="http://www.w3.org/2000/svg" width="100%" height="100%" viewBox="0 0 16 16" fill="currentColor" symbol id="rd-icon-pencil">
  <g clip-path="url(#clip0_2248_925)">
    <path fill-rule="evenodd" clip-rule="evenodd" d="M6.78135 11.9255L14.2068 4.50001L11.4997 1.79291L4.07424 9.21835L2.67871 12.67L3.32967 13.321L6.78135 11.9255ZM11.4997 3.20712L12.7926 4.50001L6.99966 10.2929L5.70677 9.00003L11.4997 3.20712ZM4.99966 9.70714L4.92512 9.78168L4.04762 11.9521L6.21801 11.0746L6.29256 11L4.99966 9.70714Z" fill="black" fill-opacity="0.63"/>
  </g>
  <defs>
    <clipPath id="clip0_2248_925">
      <rect width="16" height="16" fill="white"/>
    </clipPath>
  </defs>
</svg>

<svg xmlns="http://www.w3.org/2000/svg" width="100%" height="100%" viewBox="0 0 16 16" fill="currentColor" symbol id="rd-icon-trash-can">
  <g clip-path="url(#clip0_2248_917)">
    <path fill-rule="evenodd" clip-rule="evenodd" d="M7.5 3C7.22386 3 7 3.22386 7 3.5V4H9V3.5C9 3.22386 8.77614 3 8.5 3H7.5ZM6 3.5C6 2.67157 6.67157 2 7.5 2H8.5C9.32843 2 10 2.67157 10 3.5V4H13V5H12V12.5C12 13.3284 11.3284 14 10.5 14H5.5C4.67157 14 4 13.3284 4 12.5V5H3V4H6V3.5ZM5 5V12.5C5 12.7761 5.22386 13 5.5 13H10.5C10.7761 13 11 12.7761 11 12.5V5H5ZM6 12V6H7V12H6ZM9 12V6H10V12H9Z" fill="black" fill-opacity="0.63"/>
  </g>
  <defs>
    <clipPath id="clip0_2248_917">
      <rect width="16" height="16" fill="white"/>
    </clipPath>
  </defs>
</svg>
